<svg width="40" height="40" viewBox="0 0 40 40" fill="none" xmlns="http://www.w3.org/2000/svg">
<path d="M4.69288 0.428223C1.97393 0.428223 0 2.30381 0 4.88611C0 7.46754 1.93477 9.34138 4.59888 9.34138C5.98098 9.34138 7.17161 8.89316 8.04282 8.04545C8.87835 7.23168 9.33876 6.10981 9.33789 4.86609C9.27696 2.25333 7.36657 0.428223 4.69288 0.428223ZM6.82957 6.79825C6.28995 7.32306 5.51796 7.6007 4.59888 7.6007C2.91651 7.6007 1.74068 6.48492 1.74068 4.88611C1.74068 3.26118 2.92696 2.1689 4.69288 2.1689C6.41876 2.1689 7.55891 3.24378 7.59808 4.88698C7.59721 5.63721 7.32479 6.31521 6.82957 6.79825Z" fill="white"/>
<path d="M0.834717 39.5718H8.65734V10.8114H0.834717V39.5718ZM2.5754 12.5521H6.91666V37.8303H2.5754V12.5521Z" fill="white"/>
<path d="M29.2853 10.8114C25.6577 10.8114 23.4366 12.0638 22.1502 13.2414L21.9057 10.8114H13.0552V39.5709H21.7229V24.4557C21.7229 23.8047 21.9866 22.4531 22.152 22.0962C23.199 19.8412 24.6116 19.8412 26.7509 19.8412C29.2148 19.8412 31.2967 22.1519 31.2967 24.8866V39.5727H40.0001V23.3234C40.0001 14.7262 34.4455 10.8114 29.2853 10.8114ZM38.2594 37.8311H33.0373V24.8857C33.0373 21.2068 30.1582 18.0996 26.7509 18.0996C24.5646 18.0996 22.0876 18.0996 20.5723 21.3634C20.2599 22.0379 19.9813 23.6542 19.9813 24.4557V37.8311H14.7959V12.5521H20.3312L20.6863 16.0717H22.1128L22.3678 15.6601C22.9483 14.7253 24.7839 12.5512 29.2853 12.5512C33.6074 12.5512 38.2594 15.9212 38.2594 23.3208V37.8311Z" fill="white"/>
</svg>
