<svg width="160" height="64" viewBox="0 0 160 64" fill="none" xmlns="http://www.w3.org/2000/svg">
<g filter="url(#filter0_dd_20_1944)">
<g clip-path="url(#clip0_20_1944)">
<path d="M25.8903 55.432C13.8879 55.432 4.1217 45.4643 4.1217 33.2048C4.1217 20.9453 13.8879 10.9698 25.8903 10.9698H42.1369V14.3105H25.8903C15.6906 14.3105 7.39232 22.7865 7.39232 33.2048C7.39232 43.6231 15.6906 52.0991 25.8903 52.0991C36.0901 52.0991 44.3883 43.6231 44.3883 33.2048V31.5345H47.6589V33.2048C47.6589 45.4643 37.8927 55.432 25.8903 55.432Z" fill="white"/>
<path d="M58.1629 12.3605C58.1629 19.1817 52.7474 24.721 46.0617 24.721C39.3759 24.721 33.9604 19.1895 33.9604 12.3605C33.9604 5.53155 39.3759 0 46.0617 0C52.7474 0 58.1629 5.53155 58.1629 12.3605Z" fill="white"/>
<path d="M64.6814 10.6902H48.7999V14.0309H64.6814V10.6902Z" fill="#FFDA00"/>
<path d="M30.3399 44.0271H25.9816C20.1401 44.0271 15.3863 39.1714 15.3863 33.2048C15.3863 27.2382 20.1401 22.3826 25.9816 22.3826H30.3551V25.7232H25.9816C21.9427 25.7232 18.6493 29.0795 18.6493 33.2126C18.6493 37.3457 21.9351 40.7019 25.9816 40.7019H30.3475V44.0271H30.3399Z" fill="#FFDA00"/>
<path d="M60.8023 37.1127L57.4632 30.5867H60.1177L61.9964 34.5256L63.8599 30.5867H66.3395L63.1678 37.1127V41.2846H60.8023V37.1127Z" fill="white"/>
<path d="M67.5488 30.5867H73.474V32.8241H69.9067V34.7586H73.436V36.9961H69.9067V39.0471H73.5348V41.2846H67.5488V30.5867Z" fill="white"/>
<path d="M75.3983 30.5867H77.7562V39.0471H81.3539V41.2846H75.3983V30.5867Z" fill="white"/>
<path d="M82.5937 30.5867H84.9516V39.0471H88.5493V41.2846H82.5937V30.5867Z" fill="white"/>
<path d="M94.4439 39.2025C96.1629 39.2025 97.4712 37.8973 97.4712 35.9318C97.4712 33.9662 96.1629 32.661 94.4439 32.661C92.725 32.661 91.4319 33.9662 91.4319 35.9318C91.4319 37.8973 92.7174 39.2025 94.4439 39.2025ZM88.9752 35.9318C88.9752 32.661 91.3102 30.3691 94.4363 30.3691C97.5624 30.3691 99.9127 32.661 99.9127 35.9318C99.9127 39.2025 97.5624 41.4944 94.4363 41.4944C91.3102 41.5022 88.9752 39.2025 88.9752 35.9318Z" fill="white"/>
<path d="M100.43 30.5867H102.849L104.484 37.4778L106.416 30.5867H108.652L110.653 37.5166L112.235 30.5867H114.592L111.908 41.2846H109.572L107.526 34.409L105.48 41.2846H103.145L100.43 30.5867Z" fill="white"/>
<path d="M122.472 38.985C124.366 38.985 125.576 37.8973 125.576 35.9318C125.576 33.974 124.366 32.8785 122.472 32.8785H121.575V38.9772H122.472V38.985ZM119.217 30.5867H122.472C125.773 30.5867 128.017 32.661 128.017 35.9318C128.017 39.2025 125.773 41.2768 122.472 41.2768H119.217V30.5867Z" fill="white"/>
<path d="M129.531 37.0427V30.5944H131.889V36.8717C131.889 38.4411 132.429 39.2102 133.524 39.2102C134.635 39.2102 135.175 38.4255 135.175 36.8717V30.5944H137.532V37.0427C137.532 39.8939 136.042 41.5021 133.524 41.5021C131.006 41.5021 129.531 39.8861 129.531 37.0427Z" fill="white"/>
<path d="M139.031 35.9318C139.031 32.661 141.29 30.4391 144.606 30.4391C145.078 30.4391 145.618 30.4857 146.143 30.5712V32.7931C145.686 32.7076 145.207 32.6455 144.766 32.6455C142.743 32.6455 141.48 33.9118 141.48 35.9318C141.48 37.9517 142.743 39.2181 144.766 39.2181C145.207 39.2181 145.694 39.1637 146.143 39.0705V41.2924C145.618 41.3779 145.078 41.4245 144.606 41.4245C141.29 41.4245 139.031 39.2025 139.031 35.9318Z" fill="white"/>
<path d="M147.801 30.5867V41.2846H150.166V36.833L153.125 41.2846H156L152.197 35.6909L155.795 30.6721H153.026L150.166 34.7276V30.5867H147.801Z" fill="white"/>
<path d="M57.9576 50.0713C57.9576 46.8006 60.2166 44.5786 63.5329 44.5786C64.0044 44.5786 64.5445 44.6252 65.0693 44.7107V46.9326C64.6129 46.8472 64.1337 46.785 63.6926 46.785C61.6694 46.785 60.4067 48.0514 60.4067 50.0713C60.4067 52.0913 61.6694 53.3576 63.6926 53.3576C64.1337 53.3576 64.6129 53.3032 65.0693 53.21V55.4319C64.5445 55.5174 64.0044 55.564 63.5329 55.564C60.2242 55.564 57.9576 53.3421 57.9576 50.0713Z" fill="white"/>
<path d="M71.5268 53.3422C73.2458 53.3422 74.5541 52.037 74.5541 50.0714C74.5541 48.1136 73.2458 46.8007 71.5268 46.8007C69.8079 46.8007 68.5148 48.1058 68.5148 50.0714C68.5148 52.0292 69.8079 53.3422 71.5268 53.3422ZM66.0657 50.0714C66.0657 46.8006 68.4007 44.5088 71.5268 44.5088C74.6529 44.5088 77.0032 46.8006 77.0032 50.0714C77.0032 53.3422 74.6529 55.634 71.5268 55.634C68.4007 55.634 66.0657 53.3422 66.0657 50.0714Z" fill="white"/>
<path d="M81.8559 53.1169C83.7498 53.1169 84.9592 52.0292 84.9592 50.0636C84.9592 48.1058 83.7498 47.0104 81.8559 47.0104H80.9584V53.1091H81.8559V53.1169ZM78.5929 44.7263H81.8483C85.1493 44.7263 87.3931 46.8006 87.3931 50.0714C87.3931 53.3422 85.1493 55.4165 81.8483 55.4165H78.5929V44.7263Z" fill="white"/>
<path d="M89.0056 44.7263V55.4165H94.9992V53.179H91.3711V51.128H94.8927V48.8905H91.3711V46.9638H94.9384V44.7263H89.0056Z" fill="white"/>
<path d="M100.301 49.3023C101.099 49.3023 101.594 48.8206 101.594 48.0515C101.594 47.2823 101.099 46.8006 100.301 46.8006H99.2206V49.3023H100.301ZM99.2206 51.229V55.4165H96.8627V44.7263H100.422C102.643 44.7263 104.005 45.8606 104.005 48.0515C104.005 49.5198 103.138 50.623 101.655 51.0037L104.659 55.4243H101.814L99.2206 51.229Z" fill="white"/>
<path d="M105.792 55.4164V53.1479C106.728 53.2333 107.23 53.2644 107.587 53.2644C108.637 53.2644 109.093 52.9847 109.093 52.3476C109.093 51.9437 108.911 51.6096 108.196 51.1279L107.116 50.3898C106.066 49.6673 105.526 48.735 105.526 47.5852C105.526 45.7129 106.865 44.5786 109.093 44.5786C109.588 44.5786 110.12 44.633 110.698 44.7262V46.8782C110.112 46.7928 109.572 46.7306 109.162 46.7306C108.31 46.7306 107.884 46.9948 107.884 47.5153C107.884 47.8804 108.082 48.1679 108.667 48.5641L109.58 49.1779C110.904 50.0635 111.489 51.0347 111.489 52.3321C111.489 54.3987 110.097 55.5718 107.648 55.5718C107.237 55.564 106.682 55.5329 105.792 55.4164Z" fill="white"/>
</g>
</g>
<defs>
<filter id="filter0_dd_20_1944" x="0" y="0" width="160" height="63.634" filterUnits="userSpaceOnUse" color-interpolation-filters="sRGB">
<feFlood flood-opacity="0" result="BackgroundImageFix"/>
<feColorMatrix in="SourceAlpha" type="matrix" values="0 0 0 0 0 0 0 0 0 0 0 0 0 0 0 0 0 0 127 0" result="hardAlpha"/>
<feOffset dy="4"/>
<feGaussianBlur stdDeviation="2"/>
<feComposite in2="hardAlpha" operator="out"/>
<feColorMatrix type="matrix" values="0 0 0 0 0 0 0 0 0 0 0 0 0 0 0 0 0 0 0.25 0"/>
<feBlend mode="normal" in2="BackgroundImageFix" result="effect1_dropShadow_20_1944"/>
<feColorMatrix in="SourceAlpha" type="matrix" values="0 0 0 0 0 0 0 0 0 0 0 0 0 0 0 0 0 0 127 0" result="hardAlpha"/>
<feOffset dy="4"/>
<feGaussianBlur stdDeviation="2"/>
<feComposite in2="hardAlpha" operator="out"/>
<feColorMatrix type="matrix" values="0 0 0 0 0 0 0 0 0 0 0 0 0 0 0 0 0 0 0.25 0"/>
<feBlend mode="normal" in2="effect1_dropShadow_20_1944" result="effect2_dropShadow_20_1944"/>
<feBlend mode="normal" in="SourceGraphic" in2="effect2_dropShadow_20_1944" result="shape"/>
</filter>
<clipPath id="clip0_20_1944">
<rect width="152" height="55.634" fill="white" transform="translate(4)"/>
</clipPath>
</defs>
</svg>
