<svg width="36" height="36" viewBox="0 0 36 36" fill="none" xmlns="http://www.w3.org/2000/svg">
<path d="M35.6159 15.4574C34.9705 10.7565 32.484 6.50455 28.7035 3.63693C24.9231 0.769305 20.1583 -0.479091 15.4574 0.166376C10.7565 0.811843 6.50456 3.2983 3.63693 7.07875C0.769305 10.8592 -0.479091 15.624 0.166376 20.3249C0.696097 24.2153 2.48296 27.8259 5.25475 30.6068C8.02655 33.3876 11.6313 35.1862 15.52 35.7286C16.3171 35.8322 17.1201 35.8839 17.9239 35.8836C21.1668 35.8895 24.349 35.0047 27.1235 33.3259C27.2657 33.2494 27.3909 33.1448 27.4915 33.0184C27.5921 32.8921 27.6659 32.7466 27.7086 32.5909C27.7513 32.4352 27.7619 32.2724 27.7398 32.1124C27.7177 31.9524 27.6633 31.7986 27.5799 31.6603C27.4966 31.522 27.386 31.402 27.2549 31.3077C27.1238 31.2134 26.975 31.1467 26.8173 31.1117C26.6597 31.0767 26.4966 31.074 26.3379 31.1039C26.1792 31.1338 26.0282 31.1956 25.8941 31.2856C22.7508 33.1751 19.0397 33.8897 15.4195 33.3023C11.7994 32.715 8.50451 30.8639 6.11983 28.0775C3.73515 25.2912 2.415 21.75 2.39375 18.0825C2.37249 14.4151 3.65152 10.8588 6.00374 8.04505C8.35596 5.23126 11.6292 3.34204 15.2423 2.71281C18.8554 2.08357 22.5745 2.75503 25.7395 4.60798C28.9045 6.46092 31.3104 9.37546 32.5302 12.8341C33.75 16.2928 33.7047 20.0719 32.4023 23.5003C32.1897 24.0603 31.7876 24.5281 31.2659 24.8224C30.7442 25.1167 30.1359 25.219 29.5466 25.1114C28.9573 25.0038 28.4244 24.6932 28.0403 24.2336C27.6563 23.7739 27.4454 23.1942 27.4442 22.5953V9.65031C27.4442 9.33406 27.3186 9.03076 27.095 8.80714C26.8714 8.58352 26.5681 8.45789 26.2518 8.45789C25.9356 8.45789 25.6323 8.58352 25.4087 8.80714C25.185 9.03076 25.0594 9.33406 25.0594 9.65031V11.7084C23.769 10.24 22.0586 9.20346 20.1597 8.73909C18.2608 8.27473 16.2651 8.40496 14.4426 9.11216C12.6202 9.81937 11.059 11.0694 9.97037 12.6931C8.88173 14.3168 8.31822 16.2357 8.35608 18.1902C8.39393 20.1447 9.03134 22.0403 10.182 23.6206C11.3327 25.2009 12.9412 26.3896 14.7896 27.0257C16.6381 27.6618 18.6374 27.7146 20.5168 27.1771C22.3963 26.6395 24.0653 25.5375 25.2979 24.0202C25.5937 25.0083 26.1919 25.8787 27.0083 26.509C27.8247 27.1393 28.8182 27.4977 29.849 27.5337C30.8798 27.5698 31.8959 27.2817 32.7544 26.7101C33.6128 26.1384 34.2704 25.3119 34.6346 24.3469C35.6991 21.5122 36.0365 18.456 35.6159 15.4574ZM17.9049 25.1518C16.4898 25.1518 15.1066 24.7322 13.93 23.946C12.7535 23.1599 11.8364 22.0425 11.2949 20.7352C10.7534 19.4279 10.6117 17.9893 10.8878 16.6015C11.1639 15.2136 11.8453 13.9388 12.8458 12.9382C13.8464 11.9377 15.1212 11.2563 16.5091 10.9802C17.8969 10.7041 19.3355 10.8458 20.6428 11.3873C21.9501 11.9289 23.0675 12.8459 23.8536 14.0224C24.6398 15.199 25.0594 16.5822 25.0594 17.9973C25.0575 19.8942 24.3031 21.7129 22.9618 23.0542C21.6205 24.3955 19.8018 25.1499 17.9049 25.1518Z" fill="white"/>
</svg>
