<svg width="37" height="35" viewBox="0 0 37 35" fill="none" xmlns="http://www.w3.org/2000/svg">
<path d="M36.7246 0.364697C36.4045 0.00377762 35.8994 -0.0930011 35.481 0.0910968L0.64921 15.4447C0.263315 15.615 0.00966458 15.9956 0.000270126 16.4205C-0.00912433 16.8447 0.227182 17.2362 0.605851 17.424L8.92283 21.5425L10.9954 34.0626C11.0626 34.5378 11.4333 34.9198 11.9161 34.9889C12.2629 35.0391 12.6076 34.9162 12.8461 34.6688L19.4121 28.0572L28.782 34.7968C29.0826 35.0122 29.4699 35.0595 29.811 34.9234C30.1529 34.7874 30.4029 34.4854 30.4752 34.1223L36.979 1.30483C37.0433 0.979569 36.9602 0.63102 36.7246 0.364697ZM9.78134 19.5349L3.65688 16.502L27.8527 5.8367L9.78134 19.5349ZM13.1735 22.7795L12.1654 27.855L11.0778 21.2842L24.3724 11.2068L13.469 22.2229C13.3158 22.3771 13.2139 22.578 13.1735 22.7795ZM13.8332 30.5873L14.9707 24.8628L17.6235 26.7707L13.8332 30.5873ZM28.6772 32.0383L15.9058 22.853L34.1506 4.42067L28.6772 32.0383Z" fill="white"/>
</svg>
